<svg width="300" height="91" viewBox="0 0 300 91" fill="none" xmlns="http://www.w3.org/2000/svg">
<path fill-rule="evenodd" clip-rule="evenodd" d="M299.749 54.816H0.25061V53.5082H299.749V54.816Z" fill="#151616"/>
<path fill-rule="evenodd" clip-rule="evenodd" d="M299.749 91H0.25061V89.8373H299.749V91Z" fill="#151616"/>
<path fill-rule="evenodd" clip-rule="evenodd" d="M-1.52588e-05 78.4483V78.0211C0.722153 78.0144 1.2204 77.8448 1.48837 77.516C1.75609 77.1838 1.89167 76.5362 1.89167 75.5769V66.9758C1.89167 66.0674 1.76629 65.491 1.51871 65.2469C1.26805 65.0028 0.762946 64.8536 -1.52588e-05 64.7993V64.3722H4.10891L9.07215 75.1294L13.9844 64.3722H18.0426V64.7892C17.2596 64.8165 16.7407 64.9453 16.4898 65.1825C16.2355 65.4163 16.1102 65.9826 16.1102 66.8741V75.9463C16.1102 76.8007 16.2322 77.3466 16.4798 77.5837C16.7239 77.8212 17.2458 77.9669 18.0426 78.0211V78.4483H12.0013V78.0211C12.7912 77.9803 13.3099 77.838 13.5608 77.5939C13.8081 77.3499 13.9337 76.8007 13.9337 75.9463V66.7452L8.62455 78.4483H8.21775L2.88841 66.7452V75.7056C2.88841 76.6616 3.02064 77.2821 3.28175 77.5703C3.54287 77.8584 4.06837 78.0076 4.86158 78.0211V78.4483C4.86158 78.4483 -2.16358e-05 78.4483 -1.52588e-05 78.4483ZM20.8159 64.7993V64.3722H27.0808V64.7892C26.2945 64.8164 25.7723 64.9654 25.5147 65.24C25.2569 65.5146 25.128 66.0944 25.128 66.9758V73.0138C25.128 74.6683 25.4605 75.892 26.1249 76.6853C26.7927 77.4821 27.8165 77.8787 29.1998 77.8787C30.6099 77.8787 31.7051 77.4551 32.4848 76.6109C33.2612 75.7667 33.651 74.5801 33.651 73.0512V67.0132C33.651 66.1589 33.5053 65.5791 33.2172 65.2775C32.9291 64.9723 32.3798 64.8131 31.5762 64.7993L31.5662 64.3722H36.5394V64.7892C35.8376 64.8164 35.3496 64.9894 35.0749 65.3045C34.8037 65.6231 34.6681 66.1996 34.6681 67.0336V72.7934C34.6681 74.7801 34.1699 76.2853 33.1731 77.3058C32.1763 78.3263 30.7083 78.8347 28.7692 78.8347C27.7758 78.8347 26.8878 78.7058 26.0978 78.4483C25.3112 78.1908 24.667 77.8142 24.172 77.3228C23.7212 76.8753 23.3958 76.3159 23.1923 75.6446C22.9924 74.9768 22.8907 74.0987 22.8907 73.0138V67.7285C22.8907 66.4707 22.7517 65.6672 22.4737 65.3215C22.1956 64.9723 21.643 64.7993 20.8159 64.7993ZM39.3329 78.4483V78.0211H39.4312C40.1803 78.0211 40.689 77.8754 40.9601 77.5837C41.2314 77.2923 41.3672 76.7261 41.3672 75.8887V66.7284C41.3672 65.8978 41.2314 65.3723 40.9637 65.1486C40.6957 64.9214 40.1567 64.8063 39.3431 64.7993L39.3329 64.3722H45.7405V64.7993H45.6422C44.8929 64.7993 44.3741 64.9417 44.0826 65.2233C43.7909 65.5047 43.6452 66.0063 43.6452 66.7284V76.1939C43.6452 76.8244 43.7334 77.2177 43.913 77.3769C44.0928 77.5363 44.4724 77.6143 45.0555 77.6143H47.4897C48.5338 77.6143 49.3949 77.3838 50.0697 76.926C50.7477 76.4649 51.2901 75.7394 51.7003 74.7463H52.1274L50.9748 78.4483H39.3329ZM55.2973 78.4483V78.0211C56.1853 78.0211 56.7618 77.8889 57.0296 77.6245C57.2975 77.36 57.4331 76.7737 57.4331 75.8651V65.8132C57.4331 65.5146 57.389 65.3351 57.3042 65.2742C57.216 65.2163 56.9687 65.1858 56.5583 65.1858H56.2126C54.8531 65.1858 53.931 65.3791 53.4531 65.7691C52.9716 66.1556 52.6698 66.8979 52.5514 67.993H52.1242L52.2426 64.3722H64.9796V67.993H64.532C64.4202 66.8843 64.1422 66.1385 63.6947 65.7589C63.2507 65.3758 62.2267 65.1858 60.6198 65.1858C60.1521 65.1858 59.8775 65.2199 59.796 65.291C59.7112 65.3587 59.6707 65.535 59.6707 65.8132V75.7871C59.6707 76.7938 59.8095 77.411 60.091 77.6449C60.3724 77.8754 60.9418 78.0007 61.8064 78.0211L61.8165 78.4483H55.2973ZM67.6375 78.4483V78.0211C68.4613 78.0007 69.0139 77.8685 69.292 77.6176C69.5732 77.3702 69.7123 76.8753 69.7123 76.1328V66.6877C69.7123 65.9656 69.5699 65.4741 69.2819 65.2163C68.997 64.9588 68.4478 64.8197 67.6375 64.7993V64.3722H74.0448L74.0349 64.7993C73.2009 64.8332 72.6481 64.9756 72.3771 65.2265C72.1058 65.4774 71.9703 65.9656 71.9703 66.6877V76.1328C71.9703 76.8618 72.1091 77.3532 72.3906 77.6074C72.6719 77.8652 73.221 78.0007 74.0349 78.0211L74.0448 78.4483H67.6375ZM81.2931 69.905C81.2931 70.3085 81.3303 70.5525 81.4016 70.634C81.4762 70.7186 81.6897 70.7594 82.0459 70.7594H82.3747C83.9102 70.7594 85.0122 70.5357 85.6799 70.0848C86.3478 69.6337 86.6836 68.9049 86.6836 67.8913C86.6836 66.9116 86.3852 66.1996 85.7851 65.7553C85.185 65.308 84.2256 65.0842 82.8999 65.0842C82.1406 65.0842 81.6831 65.1486 81.527 65.2775C81.371 65.4064 81.2931 65.7079 81.2931 66.1861L81.2931 69.905ZM81.2931 76.6211C81.2931 77.021 81.3812 77.2887 81.5608 77.4278C81.7407 77.5669 82.1981 77.6347 82.9407 77.6347H83.3883C84.6189 77.6347 85.5578 77.367 86.2021 76.8345C86.8496 76.3023 87.1716 75.5329 87.1716 74.5292C87.1716 73.5021 86.819 72.7325 86.1172 72.2205C85.4155 71.7085 84.3647 71.4509 82.9611 71.4509H82.1678C81.7677 71.4509 81.5236 71.495 81.4322 71.5798C81.3405 71.6644 81.2931 71.8679 81.2931 72.1866V76.6211ZM76.9807 78.4483L76.9909 78.0211C77.8183 78.0076 78.3707 77.8754 78.6454 77.6245C78.92 77.3736 79.0555 76.8819 79.0555 76.1564V66.6912C79.0555 65.9589 78.92 65.4706 78.6454 65.2265C78.3708 64.9825 77.8147 64.8401 76.9807 64.7993V64.3722H83.734C85.3918 64.3722 86.6767 64.6707 87.5886 65.2706C88.5041 65.8708 88.9617 66.7114 88.9617 67.7896C88.9617 68.5319 88.7209 69.1795 88.2361 69.732C87.7514 70.2848 87.0565 70.6949 86.1547 70.9593C87.287 71.1866 88.1447 71.59 88.7245 72.1731C89.304 72.7527 89.5924 73.5021 89.5924 74.4174C89.5924 75.7871 89.0837 76.8007 88.0668 77.4617C87.0529 78.1194 85.4835 78.4483 83.3679 78.4483L76.9807 78.4483ZM97.2133 70.783C97.2133 70.9728 97.2573 71.1086 97.3422 71.1898C97.427 71.2678 97.5658 71.3086 97.7592 71.3086C99.4542 71.3086 100.682 71.0543 101.441 70.5423C102.204 70.0338 102.583 69.2169 102.583 68.0981C102.583 67.0708 102.265 66.3183 101.631 65.8402C100.997 65.3623 99.9899 65.1249 98.6136 65.1249C97.9897 65.1249 97.6033 65.1926 97.4474 65.3281C97.2913 65.464 97.2133 65.7691 97.2133 66.2368V70.783ZM92.9012 78.4483V78.0211H93.1587C93.8673 78.0211 94.3587 77.8787 94.63 77.5939C94.9013 77.3091 95.0368 76.7871 95.0368 76.0243V66.5657C95.0368 65.8842 94.8945 65.4265 94.6096 65.1858C94.3249 64.9486 93.7553 64.8197 92.9012 64.7993V64.3722H100.044C101.627 64.3722 102.838 64.6842 103.672 65.3045C104.506 65.9283 104.923 66.8301 104.923 68.01C104.923 68.9286 104.628 69.6948 104.038 70.3052C103.448 70.9119 102.583 71.3493 101.444 71.6138C103.278 73.9734 104.645 75.621 105.54 76.5566C106.431 77.4923 107.089 77.9803 107.506 78.0211V78.4483H104.316C103.441 77.5091 102.567 76.5057 101.688 75.4378C100.814 74.3733 99.9323 73.241 99.0441 72.041H97.7592C97.5625 72.041 97.4201 72.0782 97.3389 72.1561C97.2541 72.2307 97.2133 72.3629 97.2133 72.5461V76.0243C97.2133 76.7871 97.3592 77.3091 97.6473 77.5939C97.9354 77.8787 98.4643 78.0211 99.2338 78.0211H99.4101V78.4483H92.9012ZM113.388 72.9969H118.751L116.168 67.098L113.388 72.9969ZM108.764 78.4483V78.0211C109.215 78.0144 109.591 77.8856 109.893 77.6347C110.194 77.3838 110.51 76.9092 110.842 76.2143L116.615 64.1281H117.104L122.704 76.4311C122.836 76.7296 122.975 76.9838 123.118 77.1904C123.26 77.4008 123.406 77.5669 123.558 77.6922C123.697 77.8178 123.857 77.9093 124.036 77.9602C124.216 78.0142 124.44 78.0415 124.711 78.0415V78.4483H118.843V78.0211C119.429 78.0076 119.839 77.9329 120.063 77.7974C120.287 77.6617 120.402 77.4312 120.402 77.1091C120.402 77.0006 120.389 76.8956 120.365 76.7905C120.344 76.6853 120.307 76.577 120.263 76.4718L119.08 73.8105H113.059L112.066 76.0446C111.954 76.2955 111.869 76.5158 111.815 76.6991C111.764 76.8855 111.737 77.0414 111.737 77.1667C111.737 77.4584 111.859 77.6719 112.103 77.811C112.35 77.9501 112.734 78.0211 113.256 78.0211H113.388V78.4483L108.764 78.4483ZM129.725 76.0854C129.725 76.8651 129.854 77.3702 130.112 77.5939C130.369 77.8178 130.919 77.9602 131.759 78.0211V78.4483H126.694V78.0211C127.535 77.9601 128.084 77.8178 128.342 77.5939C128.6 77.3702 128.728 76.8651 128.728 76.0854V66.2401C128.457 65.7691 128.162 65.4232 127.84 65.196C127.518 64.9723 127.138 64.8401 126.694 64.7993V64.3722H130.322L138.655 74.3766V66.7251C138.655 65.9454 138.526 65.4402 138.272 65.2163C138.017 64.9926 137.475 64.8536 136.641 64.7993V64.3722H141.686V64.7993C140.848 64.8536 140.299 64.9926 140.041 65.2163C139.78 65.4402 139.652 65.9454 139.652 66.7251V78.4483H139.224L129.725 67.0945L129.725 76.0854ZM148.51 75.848C148.51 76.6954 148.608 77.2107 148.808 77.3972C149.005 77.5837 149.507 77.6754 150.307 77.6754C152.324 77.6754 153.904 77.1193 155.04 76.0107C156.179 74.9021 156.748 73.3597 156.748 71.3865C156.748 69.3729 156.168 67.8235 155.006 66.7452C153.846 65.6639 152.182 65.1248 150.019 65.1248C149.385 65.1248 148.974 65.2232 148.788 65.4232C148.602 65.6231 148.51 66.0842 148.51 66.8133V75.848ZM144.198 78.4483L144.208 78.0211C145.028 78.0076 145.578 77.8754 145.855 77.6176C146.134 77.3634 146.272 76.8684 146.272 76.1361V66.6844C146.272 65.9691 146.13 65.4808 145.845 65.2232C145.561 64.9654 145.012 64.8266 144.198 64.7993V64.3722H150.873C153.497 64.3722 155.535 64.9792 156.989 66.1894C158.443 67.403 159.169 69.0947 159.169 71.2678C159.169 72.4714 158.928 73.5528 158.45 74.5157C157.969 75.475 157.253 76.2989 156.308 76.9872C155.592 77.5058 154.782 77.8754 153.877 78.1059C152.975 78.3331 151.778 78.4483 150.287 78.4483H144.198ZM177.133 69.905C177.133 70.3085 177.171 70.5525 177.242 70.634C177.316 70.7186 177.53 70.7594 177.886 70.7594H178.215C179.751 70.7594 180.853 70.5357 181.52 70.0848C182.188 69.6337 182.524 68.9049 182.524 67.8913C182.524 66.9116 182.225 66.1996 181.625 65.7553C181.025 65.308 180.066 65.0842 178.74 65.0842C177.981 65.0842 177.523 65.1486 177.367 65.2775C177.211 65.4064 177.133 65.7079 177.133 66.1861L177.133 69.905ZM177.133 76.6211C177.133 77.021 177.222 77.2887 177.401 77.4278C177.581 77.5669 178.038 77.6347 178.781 77.6347H179.229C180.459 77.6347 181.398 77.367 182.042 76.8345C182.69 76.3023 183.012 75.5329 183.012 74.5292C183.012 73.5021 182.659 72.7325 181.957 72.2205C181.256 71.7085 180.205 71.4509 178.801 71.4509H178.008C177.608 71.4509 177.364 71.495 177.272 71.5798C177.181 71.6644 177.133 71.8679 177.133 72.1866V76.6211ZM172.821 78.4483L172.831 78.0211C173.658 78.0076 174.211 77.8754 174.486 77.6245C174.76 77.3736 174.896 76.8819 174.896 76.1564V66.6912C174.896 65.9589 174.76 65.4706 174.486 65.2265C174.211 64.9825 173.655 64.8401 172.821 64.7993V64.3722H179.574C181.232 64.3722 182.517 64.6707 183.429 65.2706C184.344 65.8708 184.802 66.7114 184.802 67.7896C184.802 68.5319 184.561 69.1795 184.076 69.732C183.592 70.2848 182.897 70.6949 181.995 70.9593C183.127 71.1866 183.985 71.59 184.565 72.1731C185.144 72.7527 185.433 73.5021 185.433 74.4174C185.433 75.7871 184.924 76.8007 183.907 77.4617C182.893 78.1194 181.324 78.4483 179.208 78.4483L172.821 78.4483ZM191.386 71.4069C191.386 73.4308 191.823 75.0376 192.701 76.2244C193.579 77.4074 194.759 78.0007 196.244 78.0007C197.732 78.0007 198.915 77.4074 199.793 76.2244C200.671 75.0376 201.109 73.4308 201.109 71.4069C201.109 69.3932 200.671 67.7963 199.793 66.6131C198.915 65.43 197.732 64.8401 196.244 64.8401C194.759 64.8401 193.579 65.43 192.701 66.6131C191.823 67.7963 191.386 69.3932 191.386 71.4069ZM188.965 71.4069C188.965 69.1864 189.63 67.4099 190.962 66.074C192.291 64.7348 194.05 64.0672 196.244 64.0672C198.441 64.0672 200.203 64.7348 201.532 66.074C202.865 67.4099 203.529 69.1864 203.529 71.4069C203.529 73.6307 202.865 75.4141 201.532 76.7565C200.203 78.1026 198.441 78.7738 196.244 78.7738C194.05 78.7738 192.291 78.1026 190.962 76.7565C189.63 75.4141 188.965 73.6307 188.965 71.4069ZM206.713 64.7993V64.3722H212.978V64.7892C212.191 64.8164 211.669 64.9654 211.412 65.24C211.154 65.5146 211.025 66.0944 211.025 66.9757V73.0138C211.025 74.6683 211.357 75.892 212.022 76.6852C212.69 77.482 213.713 77.8786 215.097 77.8786C216.507 77.8786 217.602 77.455 218.382 76.6108C219.158 75.7666 219.548 74.5801 219.548 73.0511V67.0132C219.548 66.1589 219.402 65.579 219.114 65.2775C218.826 64.9723 218.277 64.8131 217.473 64.7993L217.463 64.3722H222.436V64.7892C221.734 64.8164 221.246 64.9893 220.972 65.3045C220.7 65.6231 220.565 66.1996 220.565 67.0336V72.7934C220.565 74.7801 220.067 76.2853 219.07 77.3058C218.073 78.3262 216.605 78.8347 214.666 78.8347C213.673 78.8347 212.784 78.7058 211.995 78.4483C211.208 78.1907 210.564 77.8142 210.069 77.3228C209.618 76.8753 209.293 76.3159 209.089 75.6446C208.889 74.9768 208.787 74.0986 208.787 73.0138V67.7285C208.787 66.4706 208.648 65.6672 208.37 65.3215C208.092 64.9723 207.54 64.7993 206.713 64.7993ZM228.22 78.4483V78.0211C229.108 78.0211 229.684 77.8889 229.952 77.6245C230.22 77.36 230.356 76.7737 230.356 75.865V65.8132C230.356 65.5146 230.312 65.3351 230.227 65.2741C230.139 65.2163 229.891 65.1858 229.481 65.1858H229.135C227.776 65.1858 226.854 65.3791 226.376 65.7691C225.894 66.1555 225.592 66.8979 225.474 67.993H225.047L225.165 64.3722H237.902V67.993H237.455C237.343 66.8843 237.065 66.1385 236.617 65.7589C236.173 65.3758 235.149 65.1858 233.542 65.1858C233.075 65.1858 232.8 65.2199 232.719 65.291C232.634 65.3587 232.593 65.535 232.593 65.8132V75.7871C232.593 76.7938 232.732 77.411 233.014 77.6449C233.295 77.8754 233.864 78.0007 234.729 78.0211L234.739 78.4483L228.22 78.4483ZM240.56 78.4483V78.0211C241.384 78.0007 241.936 77.8685 242.215 77.6176C242.496 77.3702 242.635 76.8753 242.635 76.1328V66.6877C242.635 65.9655 242.493 65.4741 242.204 65.2163C241.92 64.9588 241.37 64.8197 240.56 64.7993V64.3722H246.967L246.957 64.7993C246.123 64.8332 245.571 64.9756 245.3 65.2265C245.028 65.4774 244.893 65.9655 244.893 66.6877V76.1328C244.893 76.8618 245.032 77.3532 245.313 77.6074C245.594 77.8652 246.144 78.0007 246.957 78.0211L246.967 78.4483H240.56ZM255.84 78.611C254.026 78.0957 252.663 77.2345 251.748 76.0278C250.829 74.8241 250.371 73.2818 250.371 71.4102C250.371 69.1896 251.036 67.4131 252.368 66.074C253.697 64.7348 255.457 64.0672 257.65 64.0672C259.847 64.0672 261.61 64.7348 262.939 66.074C264.271 67.4099 264.935 69.1896 264.935 71.4069C264.935 72.9562 264.62 74.2783 263.986 75.3734C263.356 76.4685 262.41 77.3328 261.155 77.9602C260.955 78.0549 260.711 78.1602 260.42 78.2822C260.081 78.4213 259.911 78.5364 259.911 78.6314C259.911 78.8823 260.359 79.1432 261.247 79.4214C262.138 79.696 263.217 79.8756 264.488 79.9535L264.478 80.3807C264.129 80.4011 263.8 80.4146 263.495 80.4247C263.19 80.4349 262.915 80.4416 262.671 80.4416C261.42 80.4416 260.226 80.2892 259.091 79.9874C257.959 79.6822 256.874 79.2247 255.84 78.611ZM252.792 71.4069C252.792 73.4308 253.229 75.0376 254.107 76.2244C254.985 77.4074 256.165 78.0007 257.65 78.0007C259.138 78.0007 260.321 77.4074 261.2 76.2244C262.078 75.0376 262.515 73.4308 262.515 71.4069C262.515 69.3932 262.078 67.7963 261.2 66.6131C260.321 65.43 259.138 64.8401 257.65 64.8401C256.165 64.8401 254.985 65.43 254.107 66.6131C253.229 67.7963 252.792 69.3932 252.792 71.4069ZM268.119 64.7993V64.3722H274.384V64.7892C273.597 64.8164 273.075 64.9654 272.818 65.24C272.56 65.5146 272.431 66.0944 272.431 66.9757V73.0138C272.431 74.6683 272.763 75.892 273.428 76.6852C274.096 77.482 275.12 77.8786 276.503 77.8786C277.913 77.8786 279.008 77.455 279.788 76.6108C280.564 75.7666 280.954 74.5801 280.954 73.0511V67.0132C280.954 66.1589 280.808 65.579 280.52 65.2775C280.232 64.9723 279.683 64.8131 278.879 64.7993L278.869 64.3722H283.842V64.7892C283.141 64.8164 282.653 64.9893 282.378 65.3045C282.107 65.6231 281.971 66.1996 281.971 67.0336V72.7934C281.971 74.7801 281.473 76.2853 280.476 77.3058C279.479 78.3262 278.011 78.8347 276.072 78.8347C275.079 78.8347 274.191 78.7058 273.401 78.4483C272.614 78.1907 271.97 77.8142 271.475 77.3228C271.024 76.8753 270.699 76.3159 270.495 75.6446C270.295 74.9768 270.194 74.0986 270.194 73.0138V67.7285C270.194 66.4706 270.055 65.6672 269.777 65.3215C269.499 64.9723 268.946 64.7993 268.119 64.7993ZM286.575 78.4483L286.585 78.0211C287.412 78.0007 287.965 77.8721 288.239 77.6278C288.514 77.387 288.65 76.8956 288.65 76.1564V66.6877C288.65 65.9622 288.514 65.4774 288.243 65.2301C287.972 64.9825 287.416 64.8401 286.575 64.7993V64.3722H298.617L298.8 67.4844H298.373C298.227 66.5893 297.956 65.9826 297.562 65.6639C297.169 65.3452 296.471 65.1858 295.464 65.1858H291.911C291.48 65.1858 291.202 65.24 291.077 65.3452C290.952 65.4504 290.887 65.7283 290.887 66.1825V69.9626C290.887 70.2542 290.925 70.4374 290.996 70.5186C291.07 70.5966 291.257 70.6373 291.562 70.6373H294.362C295.461 70.6373 296.176 70.5016 296.511 70.2269C296.844 69.9523 297.03 69.4304 297.071 68.6641H297.498V73.5053H297.071C297.016 72.6986 296.827 72.1527 296.501 71.8713C296.173 71.59 295.461 71.4509 294.362 71.4509H291.541C291.27 71.4509 291.094 71.4881 291.013 71.5661C290.928 71.6407 290.887 71.8272 290.887 72.1255V76.3327C290.887 76.848 290.955 77.1837 291.091 77.3397C291.226 77.4956 291.494 77.5735 291.891 77.5735H295.176C296.505 77.5735 297.467 77.3837 298.061 77.0042C298.651 76.6244 299.169 75.892 299.614 74.8071L300 74.9971L298.898 78.4483L286.575 78.4483Z" fill="#151616"/>
<path fill-rule="evenodd" clip-rule="evenodd" d="M24.0124 1.93224C22.6974 1.85108 21.1632 1.8097 19.4089 1.8097H1.18254V2.67581C2.09086 2.74209 2.87755 2.88059 3.54155 3.09172C4.31604 3.33788 4.92746 3.68459 5.37548 4.13268L5.37715 4.13419C5.82181 4.58462 6.15314 5.19621 6.37046 5.96661C6.58059 6.71093 6.68574 7.60654 6.68574 8.65084V36.7235C6.68574 37.8534 6.58118 38.8173 6.3723 39.6146C6.15599 40.4401 5.82582 41.0893 5.38291 41.5615L5.38124 41.563C4.93131 42.0361 4.31211 42.3958 3.52424 42.6427C2.85181 42.8534 2.04998 42.9831 1.11935 43.0324V43.9549H21.6964V43.0272C20.719 42.9627 19.8828 42.8301 19.1908 42.6284C18.3826 42.3927 17.7629 42.0614 17.3348 41.6333L17.3331 41.6304C16.9012 41.1927 16.5793 40.5566 16.3695 39.7183C16.1682 38.9144 16.0668 37.9172 16.0668 36.7235V24.6003H22.0652C24.5151 24.6003 26.6891 24.3411 28.5887 23.824C30.4748 23.3108 32.091 22.5433 33.4389 21.5235C34.7771 20.5109 35.7788 19.3044 36.4442 17.9037C37.1121 16.4982 37.4453 14.8903 37.4453 13.0786C37.4453 12.0775 37.3309 11.1296 37.1011 10.236C36.8717 9.34334 36.5256 8.49672 36.0622 7.69706C35.6009 6.89457 35.0393 6.17599 34.3769 5.53774C33.7142 4.89924 32.9494 4.34115 32.0817 3.86146C31.4003 3.5028 30.6641 3.19203 29.8747 2.93066C29.0814 2.66804 28.2413 2.4564 27.3554 2.29784C26.4573 2.13702 25.3433 2.01465 24.0124 1.93224ZM18.2598 23.0615H16.0672V6.83772C16.0672 6.20448 16.1299 5.66779 16.2556 5.22537C16.3897 4.75203 16.5976 4.38234 16.8782 4.11462C17.4136 3.60392 18.3305 3.34832 19.6513 3.34832C20.9629 3.34832 22.0981 3.54499 23.0565 3.93984C24.0303 4.34088 24.8171 4.94444 25.4163 5.75162C26.0121 6.54157 26.4557 7.57392 26.7479 8.848C27.0352 10.0998 27.1783 11.5876 27.1783 13.3103C27.1783 15.039 27.0104 16.5232 26.6751 17.7619C26.3327 19.0267 25.8146 20.0399 25.1211 20.8006L25.1194 20.8019C24.4215 21.5615 23.4925 22.1309 22.332 22.5077C21.1968 22.8764 19.8398 23.0615 18.2598 23.0615ZM40.3344 43.1081V43.9549H76.2094L78.6703 31.2207H77.5744C76.8191 33.0953 75.9354 34.7165 74.9233 36.0807C73.8615 37.5118 72.6589 38.6597 71.3149 39.5214C69.9703 40.3834 68.3774 41.0302 66.5355 41.4601C64.7099 41.8862 62.6387 42.0999 60.3211 42.0999C59.35 42.0999 58.5445 42.0336 57.9062 41.9012C57.2307 41.7608 56.7323 41.541 56.414 41.2426C56.0842 40.9384 55.8417 40.4536 55.6874 39.7891C55.5439 39.17 55.4719 38.3835 55.4719 37.4298V23.0192H56.2734C57.8913 23.0192 59.2953 23.2078 60.4821 23.5863C61.6863 23.9703 62.6639 24.55 63.4117 25.3256C64.1615 26.0933 64.764 27.1369 65.2183 28.4548C65.6373 29.6692 65.933 31.1258 66.1052 32.8229H66.9202V12.1826H66.0883C65.8394 13.7722 65.4931 15.1468 65.0507 16.3054C64.5714 17.5616 63.9765 18.5696 63.2685 19.3275L63.266 19.3304C62.5453 20.0901 61.6545 20.6622 60.5931 21.0433C59.549 21.418 58.3449 21.6069 56.9797 21.6069C56.9249 21.6069 56.8371 21.6035 56.721 21.5971C56.605 21.5909 56.4894 21.5828 56.3804 21.5738L56.0581 21.5501C55.9811 21.5457 55.9084 21.5436 55.8413 21.5436H55.4721V7.76542C55.4721 6.88879 55.5361 6.16119 55.6653 5.58437C55.8042 4.96425 56.0235 4.5093 56.3239 4.22169C56.625 3.93333 57.1367 3.72453 57.8598 3.59422C58.5358 3.47211 59.4089 3.41168 60.4795 3.41168C62.8618 3.41168 64.9323 3.61545 66.6889 4.02285C68.4651 4.43475 69.9229 5.05637 71.0599 5.8872C72.2064 6.7304 73.12 7.84942 73.7984 9.24294C74.4292 10.5386 74.8569 12.0737 75.0802 13.8478H75.8386V1.8097H40.5244V2.65708C41.4799 2.67965 42.3013 2.79173 42.9858 2.99309C43.7879 3.22922 44.4062 3.5893 44.837 4.07334L44.8387 4.07476C45.2661 4.56055 45.5844 5.27695 45.7918 6.22563C45.9904 7.13378 46.0906 8.26493 46.0906 9.62075V36.9659C46.0906 38.1184 45.9835 39.0929 45.7712 39.8877C45.55 40.7156 45.2113 41.3547 44.7567 41.8033C44.3047 42.2493 43.668 42.581 42.8495 42.798C42.1475 42.9841 41.308 43.0875 40.3344 43.1081ZM108.944 2.50737C106.609 2.04181 103.871 1.80969 100.727 1.80969H82.1532V2.6783C83.0942 2.75345 83.9029 2.89905 84.5766 3.11478C85.3591 3.36545 85.9657 3.71316 86.3927 4.15775C86.8208 4.60384 87.1411 5.212 87.3515 5.98281C87.5539 6.72479 87.6561 7.61747 87.6561 8.66161V36.7235C87.6561 37.8534 87.5516 38.8173 87.3426 39.6146C87.1263 40.4401 86.7962 41.0893 86.3532 41.5614L86.3516 41.5629C85.9017 42.0361 85.2824 42.3958 84.4946 42.6427C83.8222 42.8534 83.0203 42.983 82.0897 43.0324V43.9549H102.667V43.0272C101.689 42.9626 100.853 42.8301 100.161 42.6284C99.353 42.3927 98.7333 42.0614 98.3052 41.6333L98.3036 41.6304C97.8713 41.1922 97.5491 40.5517 97.3391 39.7095C97.1383 38.9048 97.0372 37.9092 97.0372 36.7235V23.9678H99.4407L112.344 43.9549H125.12V43.0457C124.722 43.0328 124.347 42.9761 123.996 42.876C123.59 42.7605 123.214 42.5854 122.869 42.3512C122.529 42.1209 122.173 41.7854 121.797 41.3468C121.434 40.9238 121.046 40.3954 120.631 39.7647L109.335 23.0394L109.834 22.9056C111.385 22.4908 112.745 21.9639 113.913 21.3249C115.072 20.691 116.044 19.9466 116.827 19.0923C117.612 18.2397 118.2 17.2944 118.589 16.2551C118.98 15.2129 119.175 14.0697 119.175 12.8256C119.175 10.9732 118.803 9.3633 118.057 7.9941C117.312 6.62599 116.192 5.48849 114.694 4.57993C113.178 3.66033 111.263 2.96976 108.944 2.50737ZM99.4625 22.6822H97.0378V8.00798C97.0378 7.06365 97.1013 6.28197 97.2297 5.66511C97.3667 5.00613 97.5838 4.52318 97.8824 4.21843C98.1798 3.91443 98.635 3.69093 99.2447 3.54842C99.8151 3.4151 100.531 3.34832 101.392 3.34832C102.672 3.34832 103.799 3.54742 104.773 3.94386C105.758 4.34456 106.583 4.94695 107.251 5.74886C107.912 6.54734 108.408 7.53097 108.737 8.70165C109.061 9.8557 109.224 11.1911 109.224 12.7094C109.224 14.4 109.029 15.8725 108.639 17.1241C108.244 18.3945 107.648 19.4379 106.853 20.2506C106.057 21.0681 105.036 21.679 103.793 22.0834C102.565 22.4829 101.12 22.6822 99.4625 22.6822ZM129.222 29.8295V44.967H130.279C130.369 44.6532 130.468 44.3771 130.578 44.1394C130.726 43.8171 130.898 43.5614 131.096 43.3741C131.294 43.1817 131.539 43.0372 131.831 42.9418C132.108 42.8517 132.425 42.8058 132.785 42.8058C132.95 42.8058 133.37 42.9003 134.041 43.0904C134.648 43.2624 135.507 43.5248 136.616 43.8787C137.704 44.2206 138.772 44.4775 139.817 44.6479C140.861 44.8181 141.892 44.9035 142.905 44.9035C145.267 44.9035 147.383 44.6041 149.254 44.0039C151.117 43.4065 152.743 42.5101 154.135 41.314C155.515 40.128 156.55 38.7435 157.239 37.1602C157.929 35.5735 158.274 33.7804 158.274 31.7795C158.274 30.3193 158.09 28.9799 157.72 27.7636C157.352 26.5558 156.8 25.4623 156.062 24.4851C155.326 23.503 154.329 22.5563 153.072 21.6441C151.804 20.7241 150.273 19.842 148.482 18.9985L142.403 16.1222C141.216 15.5744 140.2 15.0169 139.352 14.4533C138.486 13.8768 137.793 13.2907 137.273 12.6988C136.22 11.5009 135.694 10.1131 135.694 8.53499C135.694 7.58839 135.869 6.72672 136.216 5.9473C136.563 5.16829 137.082 4.47746 137.771 3.87281C138.455 3.27661 139.243 2.82868 140.135 2.5292C141.02 2.23255 142.003 2.08327 143.084 2.08327C144.474 2.08327 145.807 2.36562 147.083 2.92948C148.35 3.48983 149.559 4.32894 150.709 5.44612C151.853 6.55796 152.827 7.84383 153.63 9.30363C154.389 10.6847 154.996 12.2207 155.449 13.911H156.377V0.797577H155.281C155.23 1.02551 155.16 1.23698 155.074 1.43215C154.945 1.72286 154.778 1.97244 154.575 2.1819C154.37 2.39304 154.136 2.5536 153.871 2.66109C153.609 2.76749 153.32 2.82157 153.004 2.82157C152.827 2.82157 152.391 2.73322 151.694 2.55695C151.029 2.38877 150.097 2.13468 148.898 1.79524C147.724 1.46241 146.577 1.21274 145.456 1.04624C144.341 0.880577 143.252 0.797577 142.188 0.797577C140.334 0.797577 138.664 1.07942 137.176 1.64404C135.694 2.20631 134.388 3.05118 133.255 4.1789C132.121 5.30737 131.272 6.60845 130.706 8.08112C130.138 9.55923 129.854 11.2183 129.854 13.0574C129.854 14.452 130.058 15.7514 130.467 16.9555C130.875 18.1605 131.487 19.2728 132.302 20.2916C133.124 21.3185 134.196 22.3078 135.519 23.2586C136.847 24.2127 138.431 25.1291 140.27 26.0068L146.141 28.9374C147.036 29.3629 147.816 29.8215 148.48 30.3128C149.149 30.8075 149.697 31.3346 150.123 31.8932L150.125 31.8946C150.555 32.4642 150.88 33.0863 151.097 33.7608C151.314 34.4333 151.423 35.1534 151.423 35.9222C151.423 37.0077 151.236 37.9965 150.862 38.8877C150.486 39.7817 149.923 40.571 149.172 41.2549C148.425 41.9362 147.562 42.4489 146.584 42.7914C145.612 43.1311 144.531 43.3018 143.337 43.3018C141.646 43.3018 140.104 43.0152 138.715 42.4423C137.323 41.8685 136.089 41.009 135.015 39.8643C133.948 38.727 133.024 37.2938 132.242 35.565C131.499 33.9218 130.882 32.0096 130.391 29.8295L129.222 29.8295ZM164.989 18.0853C164.673 19.6276 164.515 21.2269 164.515 22.8822C164.515 24.5014 164.658 26.0578 164.942 27.5529C165.225 29.0469 165.651 30.4863 166.217 31.8728C166.779 33.2455 167.473 34.5342 168.295 35.7376C169.124 36.9498 170.079 38.0728 171.157 39.104C172.163 40.0668 173.233 40.914 174.369 41.6433C175.505 42.3728 176.706 42.9841 177.972 43.475C179.245 43.973 180.556 44.3464 181.907 44.5947C183.256 44.8428 184.652 44.967 186.094 44.967C187.498 44.967 188.866 44.8527 190.198 44.6236C191.533 44.3938 192.832 44.0489 194.096 43.5879C195.359 43.1276 196.542 42.5708 197.644 41.9195C198.748 41.2673 199.768 40.5222 200.702 39.6859C201.907 38.6054 202.969 37.4348 203.888 36.1764C204.808 34.9176 205.585 33.5704 206.218 32.1367C206.851 30.7046 207.326 29.2174 207.641 27.6789C207.957 26.1385 208.115 24.5386 208.115 22.8822C208.115 21.2639 207.973 19.7081 207.688 18.2156C207.403 16.7225 206.975 15.2889 206.405 13.9156C205.829 12.5363 205.125 11.2406 204.289 10.0276C203.453 8.81315 202.483 7.67774 201.379 6.61948C200.374 5.6718 199.308 4.83487 198.181 4.11186C197.055 3.38953 195.867 2.78112 194.615 2.28956C192.096 1.29499 189.41 0.797577 186.537 0.797577C185.133 0.797577 183.767 0.911754 182.44 1.13969C181.111 1.36813 179.82 1.71032 178.566 2.16602C177.312 2.62189 176.13 3.17706 175.021 3.83086C173.914 4.48382 172.882 5.2334 171.928 6.07945C170.719 7.15434 169.656 8.31884 168.738 9.57252C167.82 10.8255 167.045 12.1705 166.413 13.6067C165.779 15.0485 165.305 16.5416 164.989 18.0853ZM196.915 14.2265C197.411 16.7506 197.658 19.6392 197.658 22.8929C197.658 26.2772 197.429 29.2479 196.971 31.8073C196.511 34.378 195.819 36.5305 194.894 38.267C193.957 40.0218 192.788 41.341 191.387 42.2239C189.979 43.111 188.346 43.5547 186.484 43.5547C184.631 43.5547 182.984 43.0921 181.539 42.1673C180.103 41.247 178.876 39.8755 177.856 38.0527C176.851 36.2456 176.096 34.0771 175.595 31.5445C175.096 29.0248 174.846 26.1413 174.846 22.893C174.846 19.5138 175.075 16.5429 175.534 13.9822C175.996 11.4101 176.691 9.2549 177.621 7.51852C178.564 5.75857 179.737 4.434 181.142 3.54709C182.554 2.65617 184.19 2.20982 186.052 2.20982C187.905 2.20982 189.552 2.6723 190.995 3.59716C192.426 4.51483 193.647 5.8872 194.659 7.71361C195.664 9.51937 196.416 11.6901 196.915 14.2265ZM221.007 39.8341C220.811 39.0519 220.713 38.0739 220.713 36.9027V10.3313L249.158 44.967H250.377V8.83029C250.377 7.65024 250.476 6.66244 250.671 5.86781C250.876 5.03447 251.19 4.406 251.613 3.98339C252.033 3.5602 252.634 3.2364 253.414 3.01097C254.079 2.81848 254.881 2.69519 255.816 2.63994V1.8097H242.576V2.67638C243.572 2.74818 244.418 2.87983 245.113 3.07299C245.922 3.29758 246.538 3.60852 246.961 4.00822C247.388 4.41067 247.705 5.02134 247.911 5.83922C248.107 6.61806 248.206 7.59432 248.206 8.76693V29.472L225.588 1.8097H213.102V2.70196C213.611 2.79524 214.106 2.99342 214.59 3.29667C215.165 3.65708 215.722 4.16519 216.263 4.82191L216.346 4.91996C216.403 4.98958 216.448 5.045 216.483 5.07985C217.13 5.74468 217.926 6.85711 218.541 7.61522V36.9027C218.541 38.0799 218.445 39.0641 218.255 39.8543C218.056 40.6834 217.748 41.305 217.335 41.7177C216.925 42.132 216.329 42.4479 215.549 42.6678C214.883 42.8557 214.074 42.9759 213.125 43.0304L213.108 43.9549H226.342V43.0247C225.345 42.9525 224.499 42.8184 223.804 42.6231C222.996 42.3958 222.381 42.0821 221.957 41.6826L221.955 41.6797C221.529 41.2722 221.212 40.6561 221.007 39.8341ZM258.442 42.6595C258.006 42.8332 257.541 42.9378 257.05 42.9725V43.9549H269.141V42.9854C268.317 42.9854 267.596 42.9249 266.984 42.8038C266.354 42.6793 265.832 42.4886 265.424 42.232C264.999 41.9642 264.678 41.6214 264.463 41.2037C264.251 40.7915 264.144 40.3133 264.144 39.7701C264.144 39.5493 264.164 39.3051 264.203 39.0395C264.239 38.7882 264.294 38.5105 264.367 38.2091V38.2034C264.441 37.9131 264.53 37.607 264.639 37.2853C264.743 36.9763 264.865 36.6576 265.006 36.3307L266.987 31.4946H281.536L283.505 36.5157C283.716 37.0468 283.888 37.4954 284.022 37.8617C284.16 38.2417 284.266 38.5553 284.337 38.8033C284.408 39.0487 284.461 39.2698 284.496 39.4672C284.535 39.6832 284.554 39.8682 284.554 40.023C284.554 41.0365 284.087 41.7774 283.131 42.2572C282.692 42.4866 282.132 42.6595 281.45 42.7794C280.88 42.8797 280.214 42.9438 279.454 42.973L279.436 43.9549H298.879V42.9709C298.426 42.9351 298 42.8319 297.602 42.6616C297.1 42.4464 296.647 42.1245 296.249 41.6972L296.247 41.6957C295.86 41.275 295.417 40.6054 294.921 39.6865C294.441 38.7988 293.908 37.6698 293.322 36.2986L278.385 0.79758H277.169L262.388 37.5669C262.001 38.5203 261.604 39.3403 261.198 40.0244C260.787 40.7166 260.364 41.273 259.93 41.6903C259.485 42.1187 258.988 42.4423 258.442 42.6595ZM280.263 29.5764H267.639L274.133 13.2779L280.812 29.5764H280.263Z" fill="#151616"/>
</svg>
